<svg width="38" height="41" viewBox="0 0 38 41" fill="none" xmlns="http://www.w3.org/2000/svg">
<path fill-rule="evenodd" clip-rule="evenodd" d="M24.6976 19.0441L19.6046 16.159C19.2306 15.947 18.7694 15.947 18.3952 16.159L13.3024 19.0441C13.1152 19.1501 13 19.3461 13 19.558V25.4068C13 25.7344 13.2707 26 13.6046 26H16.2436C16.5775 26 16.8482 25.7344 16.8482 25.4068V21.7468C16.8482 21.419 17.1189 21.1534 17.453 21.1534H20.547C20.8811 21.1534 21.1518 21.419 21.1518 21.7468V25.4068C21.1518 25.7344 21.4225 26 21.7564 26H24.3954C24.7293 26 25 25.7344 25 25.4068V19.558C25 19.3461 24.8848 19.1501 24.6976 19.0441Z" fill="#2A42E8"/>
<mask id="mask0_0_1143" style="mask-type:alpha" maskUnits="userSpaceOnUse" x="1" y="0" width="36" height="41">
<path fill-rule="evenodd" clip-rule="evenodd" d="M1 0.117432H36.952V41H1V0.117432Z" fill="white"/>
</mask>
<g mask="url(#mask0_0_1143)">
<path fill-rule="evenodd" clip-rule="evenodd" d="M29.9889 19.1296V22.9068V25.3708C29.9889 25.8001 29.7618 26.1967 29.3934 26.4113L24.9159 29.0194L19.5585 32.14C19.1898 32.3546 18.7359 32.3546 18.3674 32.14L13.0098 29.0194V29.0042L8.55864 26.4113C8.19016 26.1967 7.96312 25.8001 7.96312 25.3708V22.9068V19.1296V16.6658C7.96312 16.2366 8.19016 15.8398 8.55864 15.6253L13.3207 12.8515C13.6892 12.6368 14.1431 12.6368 14.5116 12.8515L18.3806 15.1049C18.7489 15.3196 19.203 15.3196 19.5714 15.1049L23.4402 12.8515C23.8089 12.6368 24.2628 12.6368 24.6313 12.8515L29.3934 15.6253C29.7618 15.8398 29.9889 16.2366 29.9889 16.6658V19.1296ZM35.3521 9.15632L20.5759 0.549869C19.5858 -0.026714 18.366 -0.026714 17.3759 0.549869L2.59992 9.15632C1.60984 9.73306 0.999924 10.7989 0.999924 11.9522V29.1651C0.999924 30.3185 1.60984 31.3843 2.59992 31.961L17.3759 40.5675C18.366 41.1442 19.5858 41.1442 20.5759 40.5675L35.3521 31.961C36.342 31.3843 36.9521 30.3185 36.9521 29.1651V11.9522C36.9521 10.7989 36.342 9.73306 35.3521 9.15632Z" fill="#2A42E8"/>
</g>
</svg>
